<?xml version="1.0" encoding="utf-8"?>
<!-- Generator: Adobe Illustrator 16.0.0, SVG Export Plug-In . SVG Version: 6.00 Build 0)  -->
<!DOCTYPE svg PUBLIC "-//W3C//DTD SVG 1.1//EN" "http://www.w3.org/Graphics/SVG/1.1/DTD/svg11.dtd">
<svg version="1.1" xmlns="http://www.w3.org/2000/svg" xmlns:xlink="http://www.w3.org/1999/xlink" x="0px" y="0px"
	 width="1089.5px" height="335.5px" viewBox="0 0 1089.5 335.5" enable-background="new 0 0 1089.5 335.5" xml:space="preserve">
<g id="New_Layer">
	<g>
		<polygon fill-rule="evenodd" clip-rule="evenodd" points="436.3,106 436.3,206 463.8,206 491.3,206 491.3,106 491.3,6 463.8,6 
			436.3,6 		"/>
		<polygon fill-rule="evenodd" clip-rule="evenodd" points="527.3,106 527.3,206 554.3,206 581.3,206 581.3,106 581.3,6 554.3,6 
			527.3,6 		"/>
		<path fill-rule="evenodd" clip-rule="evenodd" d="M869.3,106v100h29.3h29.2l2.9-6.3C938.1,183.8,957.1,172,975.3,172
			s37.2,11.8,44.6,27.7l2.9,6.3h30.1h30.2l-1.399-6.5c-2-9.7-7.5-23.4-13-32.7c-6.7-11.399-24.801-29.5-36.2-36.2
			c-9.601-5.699-23-10.899-34-13.3c-9.7-2.2-31.9-2.399-41.7-0.399c-8.1,1.6-21.9,6.3-28.7,9.699l-4.8,2.4V67.5V6h-27h-27V106z"/>
		<path fill-rule="evenodd" clip-rule="evenodd" d="M779.3,121.4v8.5l-4.4-2.5c-5.899-3.301-19.199-8.101-28-10.101
			c-9.8-2.3-34.5-2.2-44.399,0c-10.8,2.5-24.101,7.8-33.4,13.3c-11.399,6.7-29.5,24.801-36.2,36.2c-5.5,9.3-11,23-13,32.7L618.5,206
			h29.7h29.6l2.9-6.3C688.1,183.8,707.1,172,725.3,172s37.2,11.8,44.6,27.7l2.9,6.3h30.3h30.2v-46.5V113h-27h-27V121.4z"/>
		<path fill-rule="evenodd" clip-rule="evenodd" d="M276.9,116c-24.9,4-43.2,13.3-61.1,31.4c-15.5,15.699-24.7,32.3-28.9,52.1
			l-1.4,6.5h29.8h29.8l2.8-5.8c7.5-15.601,26.5-27.2,44.4-27.2s36.9,11.6,44.4,27.2l2.8,5.8h29.3h29.3l-1.4-6.5
			c-2-9.7-7.5-23.4-13-32.7c-6.7-11.399-24.8-29.5-36.2-36.2c-9.4-5.6-22.9-10.899-33.4-13.199C305.3,115.5,285,114.8,276.9,116z"/>
		<path fill-rule="evenodd" clip-rule="evenodd" d="M97.9,117c-15,2.4-29.3,7.6-41.6,15.2c-15.1,9.2-31.9,27.6-39.8,43.3
			c-3,6.1-7.9,20.6-8.7,25.8L7.1,206h31.3h31.4l2.9-6.3c1.9-4.101,5.2-8.5,9.5-12.8c17.4-17.4,43.1-19.7,63.9-5.9l3.2,2.2v-30.4
			v-30.5l-5.7-1.7c-3.2-0.899-7.8-2.1-10.3-2.6C126.8,116.5,104.8,115.9,97.9,117z"/>
		<path fill-rule="evenodd" clip-rule="evenodd" d="M5.7,231.7c1.6,17,6.8,33.3,15.2,47.5c6.7,11.399,24.8,29.5,36.2,36.2
			c17.6,10.5,34,14.899,55.2,15c14.3,0.1,20.7-0.801,31.8-4.2l5.2-1.601V292.7v-31.9l-3.2,2.2c-8.4,5.5-19.4,9-28.8,9
			c-23.7,0-44.8-17.7-49.1-41.3L67,224H36H5L5.7,231.7z"/>
		<path fill-rule="evenodd" clip-rule="evenodd" d="M184.7,231.2c1.7,16.899,6.9,33,15.2,47c6.7,11.399,24.8,29.5,36.2,36.2
			c17.9,10.6,34,14.899,55.7,14.899s37.8-4.3,55.7-14.899c11.4-6.7,29.5-24.801,36.2-36.2c8.3-14,13.5-30.101,15.2-47l0.7-7.2h-28.5
			h-28.4l-1.2,7.2c-4.1,23.8-25.3,41.8-49.2,41.8s-45.1-18-49.2-41.8l-1.2-7.2H213h-29L184.7,231.2z"/>
		<polygon fill-rule="evenodd" clip-rule="evenodd" points="436.3,277 436.3,330 463.8,330 491.3,330 491.3,277 491.3,224 
			463.8,224 436.3,224 		"/>
		<polygon fill-rule="evenodd" clip-rule="evenodd" points="527.3,277 527.3,330 554.3,330 581.3,330 581.3,277 581.3,224 
			554.3,224 527.3,224 		"/>
		<path fill-rule="evenodd" clip-rule="evenodd" d="M617.7,231.2c1.699,16.899,6.899,33,15.199,47c6.7,11.399,24.801,29.5,36.2,36.2
			c9.3,5.5,22.601,10.8,33.4,13.3c9.899,2.2,34.6,2.3,44.399,0c8.801-2,22.101-6.8,28-10.101l4.4-2.5v7.5v7.4h27h27v-53v-53h-28.8
			h-28.9l-1.2,6.7C770.1,254.3,749,272,725.3,272s-44.8-17.7-49.1-41.3L675,224h-29h-29L617.7,231.2z"/>
		<path fill-rule="evenodd" clip-rule="evenodd" d="M869.3,277v53h27h27v-7v-7l4.8,2.4c6.8,3.399,20.601,8.1,28.7,9.699
			c9.8,2,32,1.801,41.7-0.399c11-2.4,24.399-7.601,34-13.3c11.399-6.7,29.5-24.801,36.2-36.2c8.3-14,13.5-30.101,15.199-47l0.7-7.2
			h-29.5h-29.5l-1.2,6.7C1020.1,254.3,999,272,975.3,272s-44.8-17.7-49.1-41.3L925,224h-27.9h-27.8V277z"/>
	</g>
</g>
<g id="MasterLayer_1">
</g>
</svg>
